<?xml version="1.0" encoding="UTF-8" standalone="no"?>
<svg
   xmlns:dc="http://purl.org/dc/elements/1.1/"
   xmlns:cc="http://creativecommons.org/ns#"
   xmlns:rdf="http://www.w3.org/1999/02/22-rdf-syntax-ns#"
   xmlns:svg="http://www.w3.org/2000/svg"
   xmlns="http://www.w3.org/2000/svg"
   xmlns:sodipodi="http://sodipodi.sourceforge.net/DTD/sodipodi-0.dtd"
   xmlns:inkscape="http://www.inkscape.org/namespaces/inkscape"
   inkscape:version="1.0 (4035a4f, 2020-05-01)"
   height="244.87001"
   width="1017.56"
   sodipodi:docname="trendio_logo_horizontal_color.svg"
   version="1.1"
   viewBox="0 0 1017.56 244.87001"
   data-name="Capa 1"
   id="Capa_1">
  <metadata
     id="metadata872">
    <rdf:RDF>
      <cc:Work
         rdf:about="">
        <dc:format>image/svg+xml</dc:format>
        <dc:type
           rdf:resource="http://purl.org/dc/dcmitype/StillImage" />
        <dc:title></dc:title>
      </cc:Work>
    </rdf:RDF>
  </metadata>
  <sodipodi:namedview
     inkscape:current-layer="Capa_1"
     inkscape:window-maximized="0"
     inkscape:window-y="32"
     inkscape:window-x="4"
     inkscape:cy="180.81"
     inkscape:cx="508.78"
     inkscape:zoom="0.8253012"
     fit-margin-bottom="0"
     fit-margin-right="0"
     fit-margin-left="0"
     fit-margin-top="0"
     showgrid="false"
     id="namedview870"
     inkscape:window-height="726"
     inkscape:window-width="1278"
     inkscape:pageshadow="2"
     inkscape:pageopacity="0"
     guidetolerance="10"
     gridtolerance="10"
     objecttolerance="10"
     borderopacity="1"
     bordercolor="#666666"
     pagecolor="#ffffff" />
  <defs
     id="defs848">
    <style
       id="style846">.cls-1{fill:#2e455c;}.cls-2{fill:#6f64fe;}</style>
  </defs>
  <g
     transform="translate(-155.22,-92.689998)"
     id="trendio_logo_color">
    <path
       id="path850"
       d="M 478.66,309.56 V 334 q -5.22,1.41 -14.71,1.42 -36.07,0 -36.06,-36.3 v -65 h -18.74 v -22.54 h 18.74 v -32 h 28.23 v 32 h 23 v 22.53 h -23 v 62.17 q 0,14.46 13.76,14.47 z"
       class="cls-1" />
    <path
       id="path852"
       d="M 564.7,210.63 V 237 a 46.18,46.18 0 0 0 -6.4,-0.47 q -31.8,0 -31.79,34.16 v 64.06 H 498.28 V 211.58 h 26.09 v 17.08 q 10.44,-18.27 36.3,-18.27 z"
       class="cls-1" />
    <path
       id="path854"
       d="m 693.27,281.33 h -93.71 q 1.65,14.71 10.67,23.37 9.02,8.66 23.77,8.66 a 33.14,33.14 0 0 0 17.55,-4.75 26.48,26.48 0 0 0 11.15,-12.81 h 28.47 a 57.41,57.41 0 0 1 -21.23,30.25 q -15.54,11.51 -36.66,11.51 -27.53,0 -44.48,-18.27 -16.95,-18.27 -17,-46.29 0,-27.27 17.08,-45.78 17.08,-18.51 44.12,-18.49 27,0 43.77,18.15 16.77,18.15 16.73,45.67 z M 633,231.74 q -13.29,0 -22.07,7.83 -8.78,7.83 -10.93,20.88 h 65.48 q -1.9,-13 -10.44,-20.88 -8.54,-7.88 -22.04,-7.83 z"
       class="cls-1" />
    <path
       id="path856"
       d="M 736.44,211.58 V 228 q 4.27,-8.07 14.12,-13.64 9.85,-5.57 23.84,-5.58 21.83,0 33.81,13.29 11.98,13.29 12,35.35 v 77.34 H 792 v -73.84 q 0,-13 -6.05,-20.52 -6.05,-7.52 -18.39,-7.47 -13.51,0 -21.23,8.07 -7.72,8.07 -7.71,22.3 v 71.41 H 710.35 V 211.58 Z"
       class="cls-1" />
    <path
       id="path858"
       d="m 932.41,227.71 v -70.94 h 28.23 v 177.94 h -26.1 V 317.15 Q 922,337.57 893,337.56 q -26.34,0 -41.64,-18.39 -15.3,-18.39 -15.3,-45.91 0,-27.51 15.3,-46 15.3,-18.49 41.64,-18.53 26.84,0 39.41,18.98 z m 1.19,45.55 q 0,-17.31 -9.37,-28.47 -9.37,-11.16 -25.23,-11.15 -15.66,0 -25.15,11.15 -9.49,11.15 -9.49,28.47 0,16.85 9.49,28.11 9.49,11.26 25.15,11.28 15.88,0 25.27,-11.16 9.39,-11.16 9.33,-28.23 z"
       class="cls-1" />
    <path
       id="path860"
       d="m 978,236.73 v -25.15 h 46.26 v 123.13 h -28.2 v -98 z m 32.26,-45.79 a 17.54,17.54 0 0 1 -12.81,-4.87 16.64,16.64 0 0 1 -5,-12.45 17.07,17.07 0 0 1 17.79,-17.8 17.07,17.07 0 0 1 12.58,5 17.34,17.34 0 0 1 5,12.81 16.64,16.64 0 0 1 -5,12.45 17.25,17.25 0 0 1 -12.53,4.86 z"
       class="cls-1" />
    <path
       id="path862"
       d="m 1108.72,337.56 q -28.47,0 -46.14,-18.75 -17.67,-18.75 -17.67,-45.55 0,-26.81 17.67,-45.67 17.67,-18.86 46.14,-18.86 28.71,0 46.38,18.86 17.67,18.86 17.68,45.67 0,26.82 -17.68,45.55 -17.68,18.73 -46.38,18.75 z m -35.58,-64.3 q 0,17.57 10.08,28.47 10.08,10.9 25.5,10.92 15.66,0 25.74,-10.92 10.08,-10.92 10.09,-28.47 0,-17.79 -10.09,-28.7 -10.09,-10.91 -25.74,-10.92 -15.42,0 -25.5,10.92 -10.08,10.92 -10.08,28.7 z"
       class="cls-1" />
    <polygon
       id="polygon864"
       points="155.22,335.12 155.22,179.98 228.69,179.98 228.69,266.75 260.61,266.75 260.61,179.98 334.08,179.98 334.08,335.12 "
       class="cls-2" />
    <path
       id="path866"
       d="m 304.71,152.11 h -31.92 a 27.5,27.5 0 1 0 -55,0 h -31.92 a 59.42,59.42 0 1 1 118.84,0 z"
       class="cls-2" />
  </g>
</svg>
